<?xml version="1.0" standalone="no"?><!DOCTYPE svg PUBLIC "-//W3C//DTD SVG 1.1//EN" "http://www.w3.org/Graphics/SVG/1.1/DTD/svg11.dtd"><svg t="1521680700470" class="icon" style="" viewBox="0 0 1024 1024" version="1.1" xmlns="http://www.w3.org/2000/svg" p-id="2870" xmlns:xlink="http://www.w3.org/1999/xlink" width="15" height="15"><defs><style type="text/css"></style></defs><path d="M439.2 680c9.6 8.8 25.6 8.8 35.2-0.8l300-309.6C784 360 784 344 773.6 334.4c-9.6-9.6-25.6-9.6-35.2 0.8L438.4 644.8l35.2-0.8-182.4-167.2c-10.4-9.6-25.6-8.8-35.2 1.6-9.6 10.4-8.8 25.6 1.6 35.2L439.2 680z" fill="#bfbfbf" p-id="2871"></path><path d="M515.2 1007.2c-276 0-500-224-500-500S239.2 7.2 515.2 7.2s500 224 500 500-224 500-500 500z m0-952C265.6 55.2 63.2 257.6 63.2 507.2s202.4 452 452 452 452-202.4 452-452S764.8 55.2 515.2 55.2z" fill="#bfbfbf" p-id="2872"></path></svg>